<svg xmlns="http://www.w3.org/2000/svg" viewBox="0 0 416.03 407.76"><defs><style>.cls-1{fill:#FFFFFF}</style></defs><g id="Camada_2" data-name="Camada 2"><g id="Camada_1-2" data-name="Camada 1"><path class="cls-1" d="M199.78 407.73c-21.57.54-46.11-5.49-69.83-15.44-18.87-7.92-36.81-17.48-53.06-30A83.73 83.73 0 0162 348.05c-.44-.56-.85-1.15-1.29-1.72-4.26-5.45-5.26-11.39-3.22-18.05 2.79-9.09 7.18-17.38 12.09-25.44 11.26-18.51 24.63-35.46 38.73-51.85a650.21 650.21 0 0172.44-71.67c8.7-7.38 17.29-14.88 25.89-22.37a1.88 1.88 0 012.75-.21c19.78 12.64 36.73 28.62 53.34 45C285.27 224 307.11 247 327.77 271a221.12 221.12 0 0128.79 42.24 49.9 49.9 0 015.44 15.69 23.81 23.81 0 01-4.46 17.8c-4.48 6.34-10.43 11.16-16.42 16-23.3 18.66-49.93 30.36-78.67 37.61-19.11 4.79-38.56 7.38-62.67 7.39zM0 197.66c0-18.28 2.11-36.55 8-54.23 4.36-13 10.52-25.19 17.29-37.07 8.35-14.68 17.55-28.78 28.72-41.52A57.31 57.31 0 0170.5 51.48a13.69 13.69 0 0112.09-.65 110.83 110.83 0 0122.07 12.53C118.9 73.45 132.09 84.8 145 96.52q7.09 6.47 14.29 12.79c1 .88.92 1.37.15 2.34C147.15 127 134.51 142 122.66 157.6c-22.22 29.3-41.95 60.18-58.28 93.16-7.1 14.32-13.47 28.95-17.78 44.4a89.22 89.22 0 00-3.07 16.2 32.66 32.66 0 001.64 13.52 14.84 14.84 0 011 4.67c0 1.09-.49 1.3-1.31.67a19.3 19.3 0 01-3.35-3.64c-16.38-20.75-27.21-44.17-33.82-69.64A236 236 0 010 197.66zM373.69 331.56c0-3.5-.1-7 0-10.51.76-22.13-5.56-42.64-14.28-62.6-9.52-21.83-21.62-42.22-34.79-62-14.14-21.26-29.72-41.45-45.8-61.27-6.35-7.83-12.63-15.72-19-23.57-.57-.71-.91-1.17 0-2 14-12.53 27.45-25.65 42.22-37.32 12.53-9.9 26.2-17.84 40.33-25.1a1.13 1.13 0 011.58.16c11.1 11.16 23.05 21.48 32.47 34.27 13 17.71 24 36.53 31.66 57.19a110.17 110.17 0 016.05 28.53 418.72 418.72 0 011.69 51.66c-.73 21.78-4.08 43.06-12.42 63.37-5 12.14-11.68 23.32-19.07 34.11-3.42 5-6.75 10.06-10.12 15.1zM318 31.92a33.52 33.52 0 00-7-.57c-9.19.54-18.07 2.71-26.89 5.12a275.36 275.36 0 00-49.52 18.24c-5.2 2.56-10 5.87-15 8.71-1.2.68-2.43 1.29-3.66 1.92a14.63 14.63 0 01-12.92.28 76.75 76.75 0 01-10.94-5.8c-12.21-7.65-25.4-13.14-38.88-18.06-9.47-3.47-19.28-5.82-28.86-8.93a87.17 87.17 0 01-13.5-5.35c-1.28-.67-3.25-1.18-3.24-2.71s2-1.86 3.24-2.45c8.77-4.17 18-7.28 27.1-10.47A210.25 210.25 0 01183.1 1.46 222.76 222.76 0 01229.64 1a200.14 200.14 0 0148.61 10.61 216.4 216.4 0 0137.12 18 6.12 6.12 0 012.63 2.31z"/></g></g></svg>